<svg xmlns="http://www.w3.org/2000/svg" width="512" height="512" viewBox="0 0 512 512" version="1.1"><path d="M 168 212 L 168 223 157 223 L 146 223 146 234 L 146 245 157 245 L 168 245 168 234 L 168 223 179 223 L 190 223 190 234 L 190 245 201 245 L 212 245 212 234 L 212 223 223 223 L 234 223 234 234 L 234 245 245 245 L 256 245 256 267 L 256 289 267 289 L 278 289 278 278 L 278 267 289 267 L 300 267 300 245 L 300 223 289 223 L 278 223 278 212 L 278 201 267 201 L 256 201 256 212 L 256 223 245 223 L 234 223 234 212 L 234 201 223 201 L 212 201 212 212 L 212 223 201 223 L 190 223 190 212 L 190 201 179 201 L 168 201 168 212 M 256 234 L 256 245 267 245 L 278 245 278 234 L 278 223 267 223 L 256 223 256 234" stroke="none" fill="#cdfe00" fill-rule="evenodd"/><path d="M 190 135 L 190 157 179 157 L 168 157 168 179 L 168 201 157 201 L 146 201 146 212 L 146 223 157 223 L 168 223 168 234 L 168 245 179 245 L 190 245 190 234 L 190 223 201 223 L 212 223 212 234 L 212 245 223 245 L 234 245 234 234 L 234 223 245 223 L 256 223 256 234 L 256 245 267 245 L 278 245 278 234 L 278 223 267 223 L 256 223 256 212 L 256 201 267 201 L 278 201 278 190 L 278 179 289 179 L 300 179 300 168 L 300 157 311 157 L 322 157 322 146 L 322 135 333 135 L 344 135 344 124 L 344 113 267 113 L 190 113 190 135 M 168 212 L 168 223 179 223 L 190 223 190 212 L 190 201 179 201 L 168 201 168 212 M 212 212 L 212 223 223 223 L 234 223 234 212 L 234 201 223 201 L 212 201 212 212 M 300 234 L 300 245 311 245 L 322 245 322 234 L 322 223 311 223 L 300 223 300 234" stroke="none" fill="#2e7e6f" fill-rule="evenodd"/><path d="M 168 91 L 168 113 157 113 L 146 113 146 135 L 146 157 135 157 L 124 157 124 179 L 124 201 113 201 L 102 201 102 223 L 102 245 91 245 L 80 245 80 267 L 80 289 146 289 L 212 289 212 311 L 212 333 201 333 L 190 333 190 355 L 190 377 179 377 L 168 377 168 399 L 168 421 157 421 L 146 421 146 432 L 146 443 157 443 L 168 443 168 432 L 168 421 179 421 L 190 421 190 410 L 190 399 201 399 L 212 399 212 388 L 212 377 223 377 L 234 377 234 366 L 234 355 245 355 L 256 355 256 344 L 256 333 267 333 L 278 333 278 322 L 278 311 289 311 L 300 311 300 300 L 300 289 311 289 L 322 289 322 278 L 322 267 333 267 L 344 267 344 256 L 344 245 355 245 L 366 245 366 234 L 366 223 377 223 L 388 223 388 212 L 388 201 399 201 L 410 201 410 190 L 410 179 377 179 L 344 179 344 168 L 344 157 355 157 L 366 157 366 146 L 366 135 377 135 L 388 135 388 124 L 388 113 399 113 L 410 113 410 102 L 410 91 421 91 L 432 91 432 80 L 432 69 300 69 L 168 69 168 91 M 190 135 L 190 157 179 157 L 168 157 168 179 L 168 201 157 201 L 146 201 146 223 L 146 245 201 245 L 256 245 256 267 L 256 289 267 289 L 278 289 278 278 L 278 267 289 267 L 300 267 300 256 L 300 245 311 245 L 322 245 322 234 L 322 223 300 223 L 278 223 278 201 L 278 179 289 179 L 300 179 300 168 L 300 157 311 157 L 322 157 322 146 L 322 135 333 135 L 344 135 344 124 L 344 113 267 113 L 190 113 190 135" stroke="none" fill="#fffefe" fill-rule="evenodd"/></svg>