<svg xmlns="http://www.w3.org/2000/svg" shape-rendering="crispEdges" viewBox="0 -0.5 820 85"><path stroke="#fff" d="M20 0h60m20 0h80m10 0h80m10 0h80m10 0h80m65 0h16m1 0h23m10 0h74m1 0h5m10 0h40m40 0h80M20 1h60m20 0h80m10 0h53m1 0h26m10 0h80m10 0h80m65 0h40m10 0h80m10 0h40m40 0h80M20 2h60m20 0h57m1 0h22m10 0h80m10 0h80m10 0h80m65 0h40m10 0h16m1 0h63m10 0h40m40 0h80M20 3h60m20 0h57m1 0h22m10 0h80m10 0h80m10 0h80m65 0h40m10 0h80m10 0h40m40 0h80M20 4h60m20 0h80m10 0h80m10 0h80m10 0h80m65 0h40m10 0h80m10 0h40m40 0h80M20 5h55m25 0h19m1 0h60m10 0h80m10 0h80m10 0h24m1 0h55m65 0h27m1 0h12m10 0h7m1 0h72m10 0h40m40 0h80M20 6h55m25 0h80m10 0h80m10 0h80m10 0h80m65 0h40m10 0h80m10 0h40m40 0h80M20 7h55m25 0h80m10 0h80m10 0h80m10 0h68m1 0h11m65 0h40m10 0h80m10 0h40m40 0h80M20 8h15m1 0h39m25 0h80m10 0h80m10 0h80m10 0h80m65 0h40m10 0h80m10 0h40m40 0h80M20 9h55m25 0h80m10 0h80m10 0h80m10 0h80m65 0h40m10 0h80m10 0h40m40 0h80M15 10h5m1 0h4m35 0h10m30 0h80m10 0h48m1 0h31m10 0h22m1 0h57m10 0h65m1 0h14m65 0h10m20 0h10m10 0h10m60 0h10m10 0h10m20 0h10m40 0h10m60 0h10M15 11h10m35 0h10m30 0h73m1 0h6m10 0h80m10 0h45m1 0h34m10 0h80m65 0h10m20 0h10m10 0h10m60 0h10m10 0h10m21 0h9m40 0h10m60 0h10M15 12h10m35 0h10m30 0h80m10 0h60m1 0h19m10 0h35m1 0h44m10 0h80m65 0h10m20 0h10m10 0h10m60 0h10m10 0h10m20 0h10m40 0h10m60 0h10M15 13h10m35 0h10m30 0h80m10 0h57m1 0h22m10 0h80m10 0h80m65 0h10m20 0h10m10 0h10m60 0h10m10 0h10m20 0h10m40 0h10m60 0h10M15 14h10m35 0h10m30 0h25m1 0h23m1 0h30m10 0h67m1 0h12m10 0h46m1 0h33m10 0h51m1 0h28m65 0h10m20 0h10m10 0h10m60 0h10m10 0h1m1 0h8m20 0h10m40 0h10m60 0h10M15 15h10m30 0h10m35 0h36m1 0h15m1 0h21m1 0h4m11 0h80m10 0h80m10 0h80m65 0h10m20 0h10m10 0h10m60 0h10m10 0h10m20 0h10m40 0h10m60 0h10M15 16h10m30 0h10m35 0h80m10 0h80m10 0h80m10 0h80m65 0h10m20 0h10m10 0h10m60 0h10m10 0h10m20 0h10m40 0h10m60 0h10M15 17h10m30 0h10m35 0h21m1 0h58m10 0h73m1 0h6m10 0h1m1 0h22m1 0h55m10 0h80m65 0h10m20 0h10m10 0h10m60 0h10m10 0h10m20 0h10m40 0h10m60 0h10M15 18h9m31 0h10m35 0h80m10 0h80m10 0h80m10 0h80m65 0h4m1 0h5m20 0h10m10 0h10m60 0h10m10 0h10m20 0h10m40 0h10m60 0h10M15 19h10m30 0h10m35 0h80m10 0h80m10 0h80m10 0h80m65 0h10m20 0h10m10 0h10m60 0h10m10 0h10m20 0h10m40 0h10m60 0h10M10 20h10m30 0h10m40 0h20m70 0h20m40 0h20m10 0h20m10 0h20m10 0h20m10 0h20m125 0h10m20 0h10m10 0h10m60 0h10m10 0h10m20 0h10m40 0h10m60 0h10M10 21h10m30 0h10m40 0h20m70 0h20m40 0h20m10 0h20m10 0h20m10 0h20m10 0h20m125 0h10m20 0h10m10 0h10m60 0h10m10 0h10m20 0h10m40 0h10m60 0h10M10 22h10m30 0h10m40 0h20m70 0h20m40 0h20m10 0h20m10 0h20m10 0h20m10 0h20m125 0h10m20 0h10m10 0h10m60 0h10m10 0h10m20 0h10m40 0h10m60 0h10M10 23h10m30 0h10m40 0h20m70 0h20m40 0h20m10 0h20m10 0h20m10 0h20m10 0h20m125 0h10m20 0h10m10 0h10m60 0h10m10 0h10m20 0h10m40 0h10m60 0h10M10 24h10m30 0h10m40 0h20m70 0h20m40 0h20m10 0h20m10 0h20m10 0h20m10 0h20m125 0h10m20 0h10m10 0h10m60 0h10m10 0h10m20 0h10m40 0h10m60 0h10M10 25h10m25 0h30m25 0h10m1 0h9m70 0h20m40 0h20m10 0h20m10 0h20m10 0h20m10 0h20m125 0h10m20 0h10m10 0h10m60 0h10m10 0h10m20 0h10m40 0h10m60 0h8m1 0h1M10 26h10m25 0h30m25 0h20m70 0h20m40 0h20m10 0h20m10 0h20m10 0h20m10 0h20m125 0h10m20 0h10m10 0h2m1 0h7m60 0h10m10 0h10m20 0h10m40 0h10m60 0h10M10 27h10m25 0h30m25 0h20m70 0h20m40 0h20m10 0h20m10 0h20m10 0h20m10 0h20m125 0h10m20 0h10m10 0h10m60 0h10m10 0h10m20 0h10m40 0h10m60 0h10M10 28h10m25 0h30m25 0h13m1 0h6m70 0h20m40 0h20m10 0h11m1 0h8m10 0h20m10 0h6m1 0h13m10 0h20m125 0h10m20 0h10m10 0h10m60 0h10m10 0h10m20 0h10m40 0h10m60 0h10M10 29h10m25 0h30m25 0h20m70 0h20m40 0h20m10 0h20m10 0h16m1 0h3m10 0h20m10 0h20m125 0h10m20 0h10m10 0h10m60 0h1m1 0h8m10 0h10m20 0h10m40 0h10m60 0h10M5 30h10m30 0h25m30 0h20m10 0h6m1 0h43m10 0h63m1 0h16m10 0h20m10 0h17m1 0h2m10 0h18m1 0h1m10 0h80m65 0h10m20 0h10m10 0h10m20 0h20m20 0h10m10 0h10m20 0h10m40 0h30m20 0h30M5 31h10m30 0h25m30 0h20m10 0h50m10 0h80m10 0h20m10 0h20m10 0h20m10 0h80m65 0h10m20 0h10m10 0h10m20 0h20m20 0h10m10 0h10m20 0h10m40 0h30m20 0h30M5 32h10m30 0h7m1 0h17m30 0h20m10 0h50m10 0h80m10 0h20m10 0h20m10 0h20m10 0h80m65 0h10m20 0h10m10 0h10m20 0h20m20 0h10m10 0h10m20 0h10m40 0h30m20 0h30M5 33h10m30 0h25m30 0h20m10 0h50m10 0h72m1 0h7m10 0h20m10 0h20m10 0h20m10 0h80m65 0h10m20 0h10m10 0h10m20 0h20m20 0h10m10 0h10m20 0h10m40 0h30m20 0h30M5 34h10m30 0h25m30 0h20m10 0h50m10 0h80m10 0h20m10 0h20m10 0h20m10 0h80m65 0h10m20 0h10m10 0h10m20 0h20m20 0h10m10 0h10m20 0h10m40 0h30m20 0h30M5 35h10m40 0h10m35 0h20m10 0h50m10 0h35m1 0h44m10 0h20m10 0h20m10 0h20m10 0h80m65 0h10m20 0h10m10 0h10m20 0h20m20 0h10m10 0h10m20 0h10m40 0h30m20 0h13m1 0h16M5 36h10m40 0h10m35 0h20m10 0h50m10 0h80m10 0h20m10 0h20m10 0h20m10 0h80m65 0h10m20 0h10m10 0h10m20 0h20m20 0h10m10 0h10m20 0h10m40 0h30m20 0h30M5 37h10m40 0h10m35 0h3m1 0h16m10 0h50m10 0h80m10 0h20m10 0h20m10 0h20m10 0h10m1 0h69m65 0h10m20 0h10m10 0h10m20 0h20m20 0h10m10 0h10m20 0h10m40 0h30m20 0h30M5 38h10m40 0h10m35 0h20m10 0h50m10 0h80m10 0h20m10 0h20m10 0h3m1 0h16m10 0h80m65 0h10m20 0h10m10 0h10m20 0h20m20 0h10m10 0h10m20 0h10m40 0h30m20 0h30M5 39h10m40 0h10m35 0h20m10 0h45m1 0h4m10 0h58m1 0h21m10 0h20m10 0h20m10 0h20m10 0h80m65 0h10m20 0h10m10 0h10m20 0h20m20 0h10m10 0h10m20 0h10m40 0h30m20 0h30M0 40h40m10 0h10m40 0h20m10 0h50m10 0h80m10 0h20m10 0h20m10 0h20m10 0h80m25 0h46m1 0h3m20 0h10m10 0h10m20 0h20m20 0h10m10 0h10m20 0h40m30 0h10m20 0h10M0 41h40m10 0h10m40 0h20m10 0h50m10 0h80m10 0h20m10 0h20m10 0h20m10 0h80m25 0h41m1 0h8m20 0h10m10 0h10m20 0h20m20 0h10m10 0h10m20 0h40m30 0h10m20 0h10M0 42h40m10 0h10m40 0h20m10 0h50m10 0h48m1 0h31m10 0h20m10 0h20m10 0h20m10 0h80m25 0h50m20 0h10m10 0h10m20 0h20m20 0h10m10 0h10m20 0h40m30 0h10m20 0h10M0 43h40m10 0h10m40 0h20m10 0h50m10 0h80m10 0h20m10 0h20m10 0h20m10 0h80m25 0h50m20 0h10m10 0h10m20 0h20m20 0h10m10 0h10m20 0h40m30 0h10m20 0h10M0 44h40m10 0h10m40 0h20m10 0h50m10 0h80m10 0h20m10 0h20m10 0h20m10 0h80m25 0h50m20 0h10m10 0h10m20 0h20m20 0h10m10 0h10m20 0h40m30 0h10m20 0h10M0 45h40m5 0h10m45 0h5m1 0h14m10 0h50m10 0h50m1 0h29m10 0h20m10 0h20m10 0h20m10 0h80m25 0h50m20 0h10m10 0h10m20 0h20m20 0h10m10 0h10m20 0h40m30 0h10m20 0h10M0 46h40m5 0h10m45 0h20m10 0h50m10 0h80m10 0h20m10 0h20m10 0h20m10 0h80m25 0h50m20 0h4m1 0h5m10 0h10m20 0h20m20 0h10m10 0h10m20 0h40m30 0h10m20 0h10M0 47h40m5 0h10m45 0h20m10 0h50m10 0h80m10 0h20m10 0h20m10 0h20m10 0h80m25 0h50m20 0h10m10 0h10m20 0h20m21 0h9m10 0h10m20 0h40m30 0h10m20 0h10M0 48h5m1 0h34m5 0h10m45 0h20m10 0h50m10 0h80m10 0h20m10 0h20m10 0h20m10 0h80m25 0h50m20 0h10m10 0h10m20 0h20m20 0h10m10 0h10m20 0h40m30 0h10m20 0h10M0 49h36m1 0h3m5 0h10m45 0h20m10 0h50m10 0h80m10 0h20m10 0h20m10 0h20m10 0h73m1 0h6m25 0h50m20 0h10m10 0h10m20 0h20m20 0h10m10 0h10m20 0h40m30 0h10m20 0h10M30 50h20m50 0h20m40 0h20m10 0h20m40 0h20m10 0h20m10 0h20m10 0h20m10 0h20m85 0h10m60 0h10m10 0h10m60 0h10m10 0h10m50 0h10m30 0h10m20 0h4m1 0h5M30 51h20m50 0h20m40 0h20m10 0h20m40 0h20m10 0h20m10 0h20m10 0h20m10 0h9m1 0h10m85 0h10m60 0h10m10 0h10m60 0h10m10 0h10m50 0h10m30 0h10m20 0h10M30 52h20m50 0h19m41 0h20m10 0h20m40 0h20m10 0h20m10 0h20m10 0h20m10 0h20m85 0h10m60 0h10m10 0h10m60 0h10m10 0h10m50 0h10m30 0h10m20 0h10M30 53h20m50 0h17m1 0h2m40 0h10m1 0h9m10 0h20m40 0h20m10 0h2m1 0h17m10 0h20m10 0h20m10 0h20m85 0h10m60 0h10m10 0h10m60 0h2m1 0h7m10 0h10m50 0h10m30 0h10m20 0h10M30 54h20m50 0h20m40 0h20m10 0h20m40 0h20m10 0h20m10 0h20m10 0h6m1 0h5m1 0h7m10 0h20m85 0h10m60 0h10m10 0h10m60 0h10m10 0h10m50 0h10m30 0h10m20 0h10M30 55h15m55 0h20m40 0h20m10 0h20m40 0h20m10 0h20m10 0h20m10 0h20m10 0h20m85 0h10m60 0h10m10 0h10m60 0h10m10 0h10m50 0h10m30 0h10m20 0h10M30 56h15m55 0h20m40 0h20m10 0h20m40 0h20m10 0h20m10 0h20m10 0h20m10 0h20m85 0h10m60 0h10m10 0h10m60 0h10m10 0h10m50 0h10m30 0h10m20 0h10M30 57h15m55 0h20m40 0h20m10 0h20m40 0h20m10 0h20m10 0h20m10 0h20m10 0h20m85 0h10m60 0h10m10 0h10m60 0h10m10 0h10m50 0h10m30 0h10m20 0h10M30 58h15m55 0h20m40 0h20m10 0h20m40 0h20m10 0h20m10 0h20m10 0h20m10 0h20m85 0h10m60 0h10m10 0h10m60 0h10m10 0h10m50 0h10m30 0h10m20 0h10M30 59h15m55 0h20m40 0h20m10 0h20m40 0h20m10 0h20m10 0h20m10 0h20m10 0h20m85 0h10m60 0h2m1 0h7m10 0h10m60 0h10m10 0h10m50 0h9m31 0h10m20 0h10M25 60h15m60 0h6m1 0h10m1 0h62m10 0h7m1 0h12m40 0h20m10 0h20m10 0h20m10 0h20m10 0h8m1 0h11m1 0h59m25 0h10m60 0h10m10 0h10m60 0h10m10 0h10m50 0h10m30 0h10m20 0h10M25 61h15m60 0h80m10 0h20m40 0h20m10 0h20m10 0h20m10 0h20m10 0h80m25 0h10m60 0h10m10 0h10m60 0h10m10 0h10m50 0h10m30 0h10m20 0h10M25 62h15m60 0h80m10 0h20m40 0h20m10 0h20m10 0h20m10 0h20m10 0h80m25 0h10m60 0h10m10 0h10m60 0h10m10 0h10m50 0h8m1 0h1m30 0h10m20 0h10M25 63h15m60 0h11m1 0h68m10 0h20m40 0h20m10 0h20m10 0h20m10 0h20m10 0h80m25 0h10m60 0h8m1 0h1m10 0h10m60 0h10m10 0h10m50 0h10m30 0h10m20 0h10M25 64h15m60 0h4m1 0h75m10 0h20m40 0h20m10 0h20m10 0h20m10 0h20m10 0h80m25 0h10m60 0h10m10 0h10m60 0h10m10 0h10m50 0h10m30 0h10m20 0h10M25 65h10m65 0h80m10 0h20m40 0h20m10 0h20m10 0h20m10 0h20m10 0h80m25 0h10m60 0h10m10 0h10m60 0h10m10 0h10m50 0h10m30 0h10m20 0h10M25 66h10m65 0h80m10 0h20m40 0h20m10 0h20m10 0h20m10 0h20m10 0h80m25 0h10m60 0h10m10 0h10m60 0h10m10 0h10m50 0h10m30 0h10m20 0h10M25 67h10m65 0h80m10 0h20m40 0h20m10 0h20m10 0h20m10 0h20m10 0h80m25 0h10m60 0h10m10 0h10m60 0h10m10 0h10m50 0h10m30 0h10m20 0h10M25 68h10m65 0h5m1 0h74m10 0h20m40 0h20m10 0h20m10 0h20m10 0h20m10 0h80m25 0h10m60 0h10m10 0h10m60 0h10m10 0h10m50 0h10m30 0h10m20 0h10M25 69h10m65 0h80m10 0h20m40 0h20m10 0h20m10 0h20m10 0h20m10 0h45m1 0h2m1 0h17m1 0h13m25 0h10m60 0h10m10 0h10m60 0h6m1 0h3m10 0h10m50 0h10m30 0h10m20 0h10M20 70h7m1 0h2m70 0h80m10 0h20m40 0h20m10 0h20m10 0h20m10 0h20m10 0h80m25 0h80m10 0h80m10 0h32m1 0h37m30 0h40M20 71h10m70 0h80m10 0h20m40 0h18m1 0h1m10 0h20m10 0h20m10 0h20m10 0h80m25 0h80m10 0h80m10 0h26m1 0h42m31 0h40M20 72h10m70 0h80m10 0h20m40 0h20m10 0h20m10 0h20m10 0h20m10 0h80m25 0h22m1 0h57m10 0h80m10 0h56m1 0h13m30 0h40M20 73h10m70 0h80m10 0h20m40 0h20m10 0h20m10 0h20m10 0h20m10 0h80m25 0h25m1 0h10m1 0h43m10 0h80m10 0h70m30 0h40M20 74h10m70 0h80m10 0h20m40 0h20m10 0h20m10 0h20m10 0h20m10 0h80m25 0h80m10 0h80m10 0h70m30 0h5m1 0h18m1 0h15M20 75h5m75 0h80m10 0h20m40 0h2m1 0h17m10 0h20m10 0h20m10 0h20m10 0h65m1 0h14m25 0h80m10 0h80m10 0h70m30 0h40M20 76h5m75 0h80m10 0h20m40 0h20m10 0h20m10 0h20m10 0h20m10 0h80m25 0h80m10 0h80m10 0h31m1 0h38m30 0h40M20 77h5m75 0h80m10 0h20m40 0h20m10 0h20m10 0h20m10 0h20m10 0h80m25 0h44m1 0h35m10 0h4m1 0h75m10 0h33m1 0h36m30 0h40M20 78h5m75 0h80m10 0h20m40 0h20m10 0h20m10 0h20m11 0h9m1 0h9m10 0h80m25 0h22m1 0h57m10 0h66m1 0h13m10 0h70m30 0h40M20 79h5m75 0h80m10 0h20m40 0h20m10 0h20m10 0h20m10 0h20m10 0h76m1 0h3m25 0h80m10 0h16m1 0h63m10 0h70m30 0h40M15 80h5m-5 1h5m-5 1h5m-5 1h5m-5 1h5"/><path stroke="#fffeff" d="M531 0h1M119 5h1m422 0h1m29 0h1m-138 5h1m249 1h1m-436 1h1m-4 1h1m-123 1h1m295 0h1m-270 1h1m21 0h1m106 2h1m22 0h1m214 1h1m-410 7h1m702 0h1m-701 3h1m232 0h1m-21 1h1m-65 4h1m-88 6h1m373 7h1M5 48h1m113 4h1m226 2h1m68 15h1m-148 2h1m455 0h1m-14 1h1m-193 5h1m168 0h1m-192 1h1"/><path stroke="#feffff" d="M639 0h1M243 1h1m337 1h1M394 5h1m43 2h1m-137 3h1m22 1h1m-11 1h1m-167 2h1m107 0h1m68 0h1m-148 1h1m-59 2h1m141 0h1m303 9h1m-241 4h1m30 0h1M52 32h1m745 3h1m-696 2h1m276 0h1m-38 1h1m-96 1h1m-9 6h1m394 2h1m-193 2h1m-65 2h1m-263 2h1m52 0h1m466 0h1m-286 1h1m-247 6h1m90 0h1m-87 3h1m-8 1h1m536 5h1m-145 3h1m2 1h1m10 0h1m248 1h1m18 0h1m-528 1h1m433 1h1"/><path stroke="#fffffe" d="M157 2h1m-1 1h1M35 8h1m-16 2h1m217 0h1m-66 1h1m482 3h1m-521 1h1M24 18h1m266 10h1m344 1h1m-501 1h1m116 0h1m-29 5h1m295 5h1m-6 1h1m-279 1h1m-134 3h1m-70 4h1m752 1h1m-508 3h1m264 6h1m176 0h1m-608 1h1m260 0h1m11 0h1m332 2h1m-171 1h1m-449 5h1m312 1h1m17 0h1M27 70h1m659 0h1m-7 1h1m-247 4h1m133 2h1m-230 1h1m9 0h1m280 0h1m-186 1h1m134 0h1"/><path stroke="#2f7f6f" d="M25 10h35m465 0h20m30 0h60m30 0h20m60 0h60M25 11h35m465 0h20m30 0h60m30 0h20m60 0h8m1 0h51M25 12h35m465 0h7m1 0h12m30 0h60m30 0h20m60 0h60M25 13h35m465 0h20m30 0h25m1 0h20m1 0h13m30 0h20m60 0h60M25 14h35m465 0h20m30 0h19m1 0h40m30 0h20m60 0h8m1 0h51M25 15h30m471 0h19m30 0h60m30 0h20m60 0h60M25 16h30m470 0h20m30 0h60m30 0h20m60 0h60M25 17h30m470 0h20m30 0h60m30 0h20m60 0h60M25 18h30m470 0h20m30 0h60m30 0h20m60 0h60M25 19h30m470 0h20m30 0h60m30 0h20m60 0h15m1 0h44M20 20h30m475 0h20m30 0h60m30 0h20m60 0h60M20 21h30m475 0h20m30 0h55m1 0h4m30 0h20m60 0h60M20 22h30m475 0h20m30 0h60m30 0h20m60 0h60M20 23h30m475 0h20m30 0h60m30 0h20m60 0h28m1 0h31M20 24h30m475 0h20m30 0h60m30 0h20m60 0h60M20 25h25m480 0h20m30 0h60m30 0h20m60 0h49m1 0h10M20 26h25m480 0h20m30 0h60m30 0h20m60 0h60M20 27h25m480 0h20m30 0h60m30 0h20m60 0h60M20 28h25m480 0h20m30 0h60m30 0h20m60 0h60M20 29h25m480 0h20m30 0h60m30 0h20m60 0h14m1 0h45M15 30h5m5 0h5m5 0h5m485 0h20m30 0h20m20 0h20m30 0h20m80 0h20M15 31h5m5 0h5m5 0h5m485 0h20m30 0h20m20 0h20m30 0h20m80 0h20M15 32h5m5 0h5m5 0h5m485 0h20m30 0h20m20 0h20m30 0h20m80 0h20M15 33h5m5 0h5m5 0h5m485 0h20m30 0h20m20 0h20m30 0h20m80 0h20M15 34h5m5 0h5m5 0h5m485 0h2m1 0h17m30 0h20m20 0h20m30 0h20m80 0h20M20 35h5m5 0h5m5 0h5m5 0h5m470 0h5m5 0h5m35 0h5m5 0h5m25 0h5m5 0h5m35 0h5m5 0h5m85 0h5m5 0h5M20 36h5m5 0h5m5 0h5m5 0h5m470 0h5m5 0h5m35 0h5m5 0h5m25 0h5m5 0h5m35 0h5m5 0h5m85 0h5m5 0h5M20 37h5m5 0h5m5 0h5m5 0h5m470 0h5m5 0h1m1 0h3m35 0h5m5 0h5m25 0h5m5 0h5m35 0h5m5 0h5m85 0h1m1 0h3m5 0h5M20 38h5m5 0h5m5 0h5m5 0h5m470 0h5m5 0h5m35 0h5m5 0h5m25 0h5m5 0h5m35 0h5m5 0h5m85 0h5m5 0h5M20 39h5m5 0h5m5 0h5m5 0h5m470 0h5m5 0h5m35 0h5m5 0h5m25 0h5m5 0h5m35 0h5m5 0h5m85 0h5m5 0h5m-255 1h10m5 0h5m30 0h10m5 0h5m20 0h10m5 0h5m30 0h10m5 0h5m80 0h10m5 0h5m-260 1h10m5 0h5m30 0h10m5 0h5m20 0h10m5 0h5m30 0h10m5 0h5m80 0h10m5 0h5m-260 1h10m5 0h5m30 0h10m5 0h5m20 0h10m5 0h5m30 0h10m5 0h5m80 0h10m5 0h5m-260 1h10m5 0h5m30 0h10m5 0h5m20 0h10m5 0h5m30 0h10m5 0h5m80 0h10m5 0h5m-260 1h10m5 0h5m30 0h6m1 0h3m5 0h5m20 0h10m5 0h5m30 0h10m5 0h5m80 0h10m5 0h5m-260 1h5m45 0h5m35 0h5m45 0h5m95 0h5m-245 1h5m45 0h5m35 0h5m45 0h5m95 0h5m-245 1h5m45 0h5m35 0h5m45 0h5m95 0h5m-245 1h5m45 0h5m35 0h5m45 0h5m95 0h5m-245 1h5m45 0h5m35 0h5m45 0h5m95 0h5m-285 1h45m45 0h5m20 0h20m45 0h5m20 0h25m50 0h5m-285 1h45m45 0h5m20 0h20m45 0h5m20 0h25m50 0h5m-285 1h45m45 0h5m20 0h20m45 0h5m20 0h25m50 0h5m-285 1h13m1 0h31m45 0h5m20 0h20m45 0h5m20 0h25m50 0h5m-285 1h45m45 0h5m20 0h20m45 0h5m20 0h25m50 0h5m-285 1h5m85 0h5m85 0h5m95 0h5m-285 1h5m85 0h5m85 0h5m95 0h5m-285 1h5m85 0h5m85 0h5m95 0h5m-285 1h5m85 0h5m85 0h5m95 0h5m-285 1h5m85 0h5m85 0h5m95 0h5m-285 1h5m85 0h5m85 0h5m95 0h5m-285 1h5m85 0h5m85 0h5m95 0h5m-285 1h5m85 0h5m85 0h5m95 0h5m-285 1h5m85 0h5m85 0h5m95 0h5m-285 1h5m85 0h5m85 0h5m95 0h5m-285 1h5m85 0h5m85 0h5m95 0h5m-285 1h5m85 0h5m85 0h5m95 0h5m-285 1h5m85 0h5m85 0h5m95 0h5m-285 1h5m85 0h5m85 0h5m95 0h5m-285 1h5m85 0h5m85 0h5m95 0h5"/><path stroke="#2e7f6f" d="M753 11h1m-133 2h1m137 16h1m-224 8h1"/><path stroke="#2f7f6e" d="M532 12h1m67 1h1m-7 1h1m35 7h1m142 2h1m-8 14h1M498 53h1"/><path stroke="#2f7e6f" d="M753 14h1m-229 1h1m234 4h1m33 6h1m-268 9h1m53 10h1"/><path stroke="#cf0" d="M20 30h5m5 0h5m5 0h5m-25 1h5m5 0h5m5 0h5m-25 1h5m5 0h5m5 0h5m-25 1h5m5 0h5m5 0h5m-25 1h5m5 0h5m5 0h5m-30 1h5m5 0h5m5 0h5m5 0h5m480 0h5m5 0h4m36 0h5m5 0h5m25 0h5m5 0h5m35 0h5m5 0h5m85 0h5m5 0h5M15 36h5m5 0h5m5 0h5m5 0h5m480 0h5m5 0h1m1 0h3m35 0h5m5 0h5m25 0h5m5 0h5m35 0h5m5 0h5m85 0h5m5 0h5M15 37h5m5 0h5m5 0h5m5 0h5m480 0h5m5 0h5m35 0h5m5 0h5m25 0h5m5 0h5m35 0h5m5 0h5m85 0h5m5 0h5M15 38h5m5 0h5m5 0h5m5 0h5m480 0h5m5 0h5m35 0h5m5 0h5m25 0h5m5 0h5m35 0h5m5 0h5m85 0h5m5 0h5M15 39h5m5 0h5m5 0h5m5 0h2m1 0h2m480 0h5m5 0h5m35 0h5m5 0h5m25 0h5m5 0h5m35 0h5m5 0h5m85 0h5m5 0h5M40 40h10m485 0h5m45 0h5m35 0h2m1 0h2m45 0h5m95 0h5M40 41h10m485 0h5m45 0h5m35 0h5m45 0h5m95 0h5M40 42h10m485 0h5m45 0h5m35 0h5m45 0h5m95 0h5M40 43h10m485 0h5m45 0h5m35 0h5m45 0h5m95 0h5M40 44h10m485 0h5m45 0h5m35 0h5m45 0h5m95 0h5M40 45h5m485 0h15m35 0h15m25 0h15m35 0h15m85 0h15M40 46h5m485 0h15m35 0h15m25 0h15m35 0h15m85 0h15M40 47h5m485 0h15m35 0h9m1 0h5m25 0h15m35 0h15m85 0h15M40 48h5m485 0h5m1 0h9m35 0h15m25 0h15m35 0h6m1 0h8m85 0h15M40 49h5m485 0h12m1 0h2m35 0h15m25 0h15m35 0h15m85 0h15m-255 1h15m35 0h20m20 0h15m35 0h20m80 0h15m-255 1h15m35 0h20m20 0h15m35 0h20m80 0h15m-255 1h10m1 0h4m35 0h20m20 0h15m35 0h20m80 0h15m-255 1h15m35 0h20m20 0h15m35 0h20m80 0h15m-255 1h15m35 0h20m20 0h15m35 0h20m80 0h15m-295 1h55m35 0h55m35 0h45m55 0h15m-295 1h55m35 0h3m1 0h51m35 0h45m55 0h15m-295 1h46m1 0h8m35 0h55m35 0h45m55 0h15m-295 1h55m35 0h48m1 0h6m35 0h45m55 0h15m-295 1h55m35 0h55m35 0h28m1 0h16m55 0h15m-295 1h55m35 0h29m1 0h25m35 0h10m1 0h34m55 0h15m-295 1h55m35 0h55m35 0h24m1 0h20m55 0h15m-295 1h55m35 0h55m35 0h45m55 0h15m-295 1h55m35 0h55m35 0h45m55 0h15m-295 1h55m35 0h45m1 0h9m35 0h36m1 0h8m55 0h15m-295 1h14m1 0h40m35 0h43m1 0h11m35 0h45m55 0h15m-295 1h55m35 0h55m35 0h45m55 0h15m-295 1h55m35 0h55m35 0h45m55 0h15m-295 1h55m35 0h55m35 0h7m1 0h37m55 0h15m-295 1h55m35 0h3m1 0h51m35 0h45m55 0h15"/><path stroke="#ccff01" d="M544 35h1m-4 1h1M47 39h1m579 1h1m-93 8h1m6 1h1m40 7h1m-48 1h1m91 1h1m-20 2h1m70 0h1m-56 4h1m-3 1h1m53 3h1m-95 1h1"/><path stroke="#ccfe00" d="M589 47h1m86 1h1m-137 4h1m157 7h1m-5 2h1m11 3h1"/><path stroke="#cdff00" d="M504 65h1"/></svg>