<svg xmlns="http://www.w3.org/2000/svg" shape-rendering="crispEdges" viewBox="0 -0.5 80 85"><path stroke="#fff" d="M20 0h28m1 0h31M20 1h10m1 0h22m1 0h26M20 2h21m1 0h26m1 0h11M20 3h12m1 0h47M20 4h45m1 0h14M20 5h49m1 0h5M20 6h55M20 7h20m1 0h19m1 0h14M21 8h50m1 0h3M20 9h47m1 0h7m-60 1h10m35 0h10m-55 1h10m35 0h10m-55 1h10m35 0h10m-55 1h10m35 0h10m-55 1h3m1 0h6m35 0h10m-55 1h10m30 0h10m-50 1h10m30 0h10m-50 1h10m30 0h10m-50 1h10m30 0h10m-50 1h7m1 0h2m30 0h10m-55 1h10m30 0h10m-50 1h9m31 0h10m-50 1h10m30 0h10m-50 1h10m30 0h7m1 0h2m-49 1h3m1 0h4m31 0h10m-50 1h10m25 0h30m-65 1h10m25 0h20m1 0h9m-65 1h8m1 0h1m26 0h2m1 0h3m1 0h22m-65 1h4m1 0h2m1 0h2m25 0h29m-64 1h10m25 0h1m1 0h3m1 0h9m1 0h11m1 0h2M5 30h10m30 0h22m1 0h1M6 31h9m30 0h22m1 0h2M5 32h10m30 0h25M5 33h10m30 0h25M5 34h8m1 0h1m30 0h14m1 0h7m1 0h2M5 35h10m40 0h5m1 0h4M5 36h7m1 0h2m40 0h1m1 0h7M5 37h10m40 0h10M5 38h10m41 0h9M5 39h10m40 0h10M0 40h16m1 0h23m10 0h10M0 41h18m1 0h21m10 0h1m2 0h7M0 42h24m1 0h13m1 0h1m10 0h8m1 0h1M0 43h15m1 0h24m10 0h10M0 44h9m1 0h1m1 0h5m1 0h22m10 0h3m1 0h6M0 45h6m1 0h30m1 0h2m5 0h10M0 46h40m5 0h9M1 47h20m1 0h14m1 0h3m5 0h10M0 48h21m1 0h17m6 0h10M0 49h40m5 0h10m-25 1h10m1 0h9m-20 1h20m-20 1h4m1 0h9m1 0h5m-20 1h4m1 0h15m-20 1h17m1 0h2m-20 1h15m-15 1h8m1 0h6m-15 1h15m-15 1h15m-15 1h5m1 0h4m1 0h4m-20 1h15m-15 1h15m-15 1h15m-15 1h15m-15 1h4m1 0h10m-15 1h10m-10 1h10m-10 1h10m-10 1h10m-10 1h10m-15 1h3m1 0h6m-10 1h8m1 0h1m-10 1h5m1 0h4m-10 1h10m-10 1h10m-10 1h5m-5 1h5m-5 1h5m-5 1h5m-5 1h5m-10 1h5m-5 1h5m-5 1h5m-5 1h5m-5 1h1m1 0h3"/><path stroke="#feffff" d="M48 0h1M32 3h1m27 4h1M20 8h1M10 24h1m54 2h1m-18 1h1m-32 1h1m49 3h1m-9 3h1m-5 4h1m-39 6h1m35 0h1M6 45h1m-7 2h1m20 0h1m13 12h1m-7 5h1m-7 6h1m1 2h1"/><path stroke="#fffffe" d="M30 1h1m37 1h1M40 7h1m-23 7h1m-5 10h1m4 0h1m25 3h1m28 1h1m-29 1h1m3 0h1m9 0h1m11 0h1m-4 1h1M5 31h1m7 3h1m53 0h1m-8 1h1m-5 1h1m7 0h1m-49 4h1m34 1h2m-15 1h1m19 0h1m-48 2h1m25 1h1m1 3h1m0 2h1m3 2h1m-11 1h1m3 3h1"/><path stroke="#fffeff" d="M53 1h1M41 2h1m23 2h1m3 1h1m1 3h1m-5 1h1M22 19h1m-4 2h1m37 2h1m-40 4h1m33 0h1m-39 1h1m52 2h1m-56 6h1m5 5h1m5 1h1m-10 1h1m-7 1h1m44 2h1m-19 1h1m-16 1h1m12 4h1m12 2h1m-8 5h1M28 71h1M16 84h1"/><path stroke="#2f7f6f" d="M25 10h3m1 0h31m-35 1h29m1 0h5m-35 1h35m-35 1h35m-35 1h10m1 0h17m1 0h6m-35 1h3m1 0h12m1 0h13m-30 1h4m1 0h25m-30 1h27m1 0h2m-30 1h3m1 0h6m1 0h19m-30 1h2m1 0h27m-35 1h30m-30 1h12m1 0h14m1 0h2m-30 1h23m1 0h6m-30 1h30m-30 1h2m1 0h27m-29 1h11m1 0h12m-25 1h25m-25 1h25m-25 1h12m1 0h12m-25 1h24m-29 1h5m5 0h5m5 0h5m-25 1h5m5 0h5m5 0h5m-25 1h5m5 0h3m1 0h1m5 0h5m-25 1h5m5 0h5m5 0h5m-25 1h3m1 0h1m5 0h5m5 0h5m-20 1h5m5 0h5m5 0h5m5 0h5m-35 1h5m5 0h5m5 0h5m5 0h5m-35 1h5m5 0h5m5 0h5m5 0h3m1 0h1m-35 1h5m5 0h5m5 0h5m5 0h5m-35 1h1m2 0h2m8 0h2m5 0h5m5 0h5"/><path stroke="#2f7f6e" d="M28 10h1m0 6h1m22 1h1M32 28h1m-15 6h1m2 5h1m8 0h1"/><path stroke="#2e7f6f" d="M54 11h1m-27 4h1m6 3h1m-4 3h1m14 0h1m-5 1h1m-12 3h1m-5 7h1m3 7h1"/><path stroke="#2f7e6f" d="M35 14h1m17 0h1m-13 1h1m-14 3h1m-2 1h1m-6 5h1m-3 1h1m23 4h1m8 8h1m-32 2h1m8 0h1"/><path stroke="#cf0" d="M20 30h5m5 0h2m1 0h2m5 0h5m-25 1h5m5 0h5m5 0h5m-25 1h5m5 0h5m5 0h5m-25 1h3m1 0h1m5 0h5m5 0h5m-23 1h3m5 0h5m5 0h5m-30 1h5m5 0h5m5 0h5m5 0h5m-35 1h5m5 0h5m5 0h5m5 0h5m-35 1h5m5 0h5m5 0h5m7 0h3m-35 1h5m5 0h5m5 0h5m5 0h5m-35 1h5m5 0h5m6 0h4m5 0h5m-10 1h10m-10 1h10m-10 1h8m1 0h1m-10 1h10m-9 1h7m1 0h1m-10 1h2m1 0h2m-5 1h5m-5 1h5m-5 1h5m-5 1h5"/><path stroke="#ccfe00" d="M32 30h1m-13 4h1m24 3h2"/><path stroke="#cdff00" d="M23 33h1m-3 1h1m13 5h1m12 3h1m-9 2h1m7 0h1m-7 1h1"/></svg>