<svg xmlns="http://www.w3.org/2000/svg" shape-rendering="crispEdges" viewBox="0 -0.5 820 90"><path stroke="#fff" d="M20 0h60m20 0h80m10 0h80m10 0h80m10 0h80m65 0h40m10 0h80m10 0h29m1 0h10m40 0h20m1 0h59M20 1h60m20 0h80m10 0h80m10 0h80m10 0h80m65 0h34m1 0h5m10 0h8m1 0h11m1 0h59m10 0h40m40 0h80M20 2h60m20 0h80m10 0h80m10 0h80m10 0h80m65 0h40m10 0h22m1 0h57m10 0h40m40 0h80M20 3h41m1 0h18m20 0h11m1 0h68m10 0h72m1 0h7m10 0h30m1 0h24m1 0h24m10 0h9m1 0h70m65 0h40m10 0h80m10 0h40m40 0h80M20 4h60m20 0h80m10 0h80m10 0h80m10 0h80m65 0h40m10 0h80m10 0h40m40 0h80M20 5h55m25 0h80m10 0h80m10 0h14m1 0h60m1 0h4m10 0h14m1 0h65m65 0h40m10 0h44m1 0h35m10 0h40m40 0h80M20 6h55m25 0h7m1 0h72m10 0h32m1 0h25m1 0h21m10 0h80m10 0h80m65 0h40m10 0h80m10 0h40m40 0h80M20 7h55m25 0h80m10 0h80m10 0h80m10 0h80m65 0h40m10 0h80m10 0h40m40 0h79M20 8h55m25 0h24m1 0h55m10 0h80m10 0h80m10 0h80m65 0h40m10 0h80m10 0h40m40 0h80M20 9h55m25 0h80m10 0h6m1 0h14m1 0h58m10 0h80m10 0h80m65 0h40m10 0h80m10 0h33m1 0h6m40 0h80M15 10h10m35 0h10m30 0h80m10 0h80m10 0h80m10 0h58m1 0h21m65 0h10m20 0h10m10 0h8m1 0h1m60 0h10m10 0h5m1 0h4m20 0h10m40 0h10m60 0h10M15 11h10m35 0h10m30 0h80m10 0h80m10 0h80m10 0h80m65 0h10m20 0h10m10 0h10m60 0h10m10 0h10m20 0h10m40 0h10m60 0h10M15 12h10m35 0h10m30 0h49m1 0h30m10 0h24m1 0h55m10 0h12m1 0h67m10 0h53m1 0h5m1 0h20m65 0h10m20 0h10m10 0h10m60 0h10m10 0h10m20 0h10m40 0h10m60 0h10M15 13h10m35 0h10m30 0h80m10 0h80m10 0h80m10 0h80m65 0h10m20 0h10m10 0h10m60 0h10m10 0h10m20 0h10m40 0h10m60 0h10M15 14h10m35 0h10m30 0h80m10 0h80m10 0h80m10 0h80m65 0h10m20 0h10m10 0h10m60 0h10m10 0h10m20 0h10m41 0h9m60 0h10M15 15h10m30 0h10m35 0h80m10 0h15m1 0h64m10 0h80m10 0h80m65 0h10m20 0h2m1 0h7m10 0h10m60 0h10m10 0h10m20 0h10m40 0h10m60 0h10M15 16h10m30 0h10m35 0h80m10 0h58m1 0h10m1 0h10m10 0h73m1 0h6m10 0h80m65 0h10m20 0h10m10 0h10m60 0h10m10 0h10m20 0h10m40 0h10m60 0h10M15 17h10m30 0h10m35 0h18m1 0h61m10 0h6m1 0h73m10 0h80m10 0h80m65 0h10m20 0h10m10 0h10m60 0h10m10 0h10m20 0h10m40 0h10m60 0h10M15 18h10m30 0h10m35 0h80m10 0h80m10 0h80m10 0h52m1 0h27m65 0h10m20 0h1m1 0h8m10 0h10m60 0h10m10 0h10m20 0h10m40 0h10m60 0h10M15 19h10m30 0h10m35 0h80m10 0h80m10 0h80m10 0h80m65 0h10m20 0h10m10 0h10m60 0h10m10 0h3m1 0h6m20 0h10m40 0h10m60 0h10M10 20h10m30 0h10m40 0h13m1 0h6m70 0h20m40 0h20m10 0h20m10 0h20m10 0h20m10 0h20m125 0h10m20 0h10m10 0h10m60 0h10m10 0h10m20 0h10m40 0h10m60 0h10M10 21h10m30 0h10m40 0h20m70 0h20m40 0h20m10 0h20m10 0h20m10 0h20m10 0h20m125 0h10m20 0h9m11 0h10m60 0h10m10 0h10m20 0h10m40 0h10m60 0h10M10 22h10m30 0h10m40 0h20m70 0h20m40 0h20m11 0h19m10 0h20m10 0h20m10 0h20m125 0h10m20 0h10m10 0h10m60 0h10m10 0h10m20 0h10m40 0h10m60 0h10M10 23h10m30 0h10m40 0h20m70 0h20m40 0h20m10 0h20m10 0h20m10 0h20m10 0h20m125 0h10m20 0h10m10 0h10m60 0h10m10 0h10m20 0h10m40 0h10m60 0h10M10 24h10m30 0h10m40 0h20m70 0h20m40 0h20m10 0h20m10 0h20m10 0h20m10 0h20m125 0h10m20 0h10m10 0h10m60 0h10m10 0h10m20 0h10m40 0h10m60 0h10M10 25h10m25 0h30m25 0h20m70 0h20m40 0h20m10 0h20m10 0h20m10 0h20m10 0h20m125 0h10m20 0h10m10 0h10m60 0h10m10 0h10m20 0h10m40 0h10m60 0h10M10 26h10m25 0h30m25 0h20m70 0h20m40 0h20m10 0h20m10 0h20m10 0h20m10 0h20m125 0h10m20 0h10m10 0h10m60 0h2m1 0h7m10 0h10m20 0h10m40 0h10m60 0h10M10 27h10m25 0h30m25 0h20m70 0h20m40 0h20m10 0h20m10 0h20m10 0h20m10 0h7m1 0h12m125 0h10m20 0h10m10 0h10m60 0h10m10 0h10m20 0h10m40 0h10m60 0h10M10 28h10m25 0h30m25 0h20m70 0h20m40 0h20m10 0h20m10 0h20m10 0h20m10 0h20m125 0h10m20 0h10m10 0h10m60 0h10m10 0h10m20 0h10m40 0h10m60 0h10M10 29h10m25 0h30m25 0h10m1 0h9m70 0h14m1 0h5m40 0h20m10 0h20m10 0h9m1 0h10m10 0h20m10 0h20m125 0h10m20 0h10m10 0h10m60 0h10m11 0h9m20 0h10m40 0h10m60 0h10M5 30h10m30 0h25m30 0h20m10 0h50m10 0h80m10 0h20m10 0h20m10 0h20m10 0h80m65 0h10m20 0h10m10 0h10m20 0h20m20 0h10m10 0h10m20 0h10m40 0h30m20 0h30M5 31h10m30 0h25m30 0h20m10 0h14m1 0h33m1 0h1m10 0h80m10 0h20m10 0h20m10 0h20m10 0h80m65 0h10m20 0h10m10 0h10m20 0h20m20 0h10m10 0h10m20 0h10m40 0h30m20 0h30M5 32h10m30 0h25m30 0h20m10 0h50m10 0h80m10 0h20m10 0h20m10 0h20m10 0h80m65 0h4m1 0h5m20 0h10m10 0h10m20 0h20m20 0h10m10 0h10m20 0h6m1 0h3m40 0h18m1 0h11m20 0h30M5 33h10m30 0h25m30 0h20m10 0h50m10 0h80m10 0h20m10 0h20m10 0h20m10 0h80m65 0h10m20 0h10m10 0h10m20 0h15m1 0h4m20 0h10m10 0h10m20 0h10m40 0h30m20 0h30M5 34h10m30 0h25m30 0h18m1 0h1m10 0h50m10 0h31m1 0h48m10 0h20m10 0h20m10 0h20m10 0h23m1 0h56m65 0h10m20 0h10m10 0h10m20 0h20m20 0h10m10 0h10m20 0h10m40 0h30m20 0h30M5 35h10m40 0h10m35 0h20m10 0h19m1 0h30m10 0h80m10 0h20m10 0h20m10 0h20m10 0h74m1 0h5m65 0h10m20 0h10m10 0h10m20 0h20m20 0h10m10 0h10m20 0h10m40 0h30m20 0h30M5 36h10m40 0h10m35 0h20m10 0h50m10 0h42m1 0h37m10 0h20m10 0h20m10 0h20m10 0h80m65 0h10m20 0h10m10 0h10m20 0h20m20 0h10m10 0h10m20 0h10m40 0h30m20 0h30M5 37h10m40 0h10m35 0h20m10 0h50m10 0h66m1 0h13m10 0h20m10 0h20m10 0h20m10 0h80m65 0h10m20 0h10m10 0h10m20 0h20m20 0h10m10 0h10m20 0h10m40 0h30m20 0h30M5 38h10m40 0h10m35 0h20m10 0h50m10 0h80m10 0h20m10 0h20m10 0h20m10 0h80m65 0h10m20 0h10m10 0h10m20 0h20m20 0h10m10 0h10m20 0h10m40 0h30m20 0h30M5 39h10m40 0h10m35 0h20m10 0h50m10 0h80m10 0h20m10 0h20m10 0h20m10 0h80m65 0h10m20 0h10m10 0h10m20 0h20m20 0h10m10 0h10m20 0h10m40 0h30m20 0h30M0 40h40m10 0h10m40 0h20m10 0h50m10 0h80m10 0h20m10 0h20m10 0h20m10 0h50m1 0h29m25 0h50m20 0h10m10 0h10m20 0h20m20 0h10m10 0h10m20 0h38m1 0h1m30 0h10m20 0h10M0 41h40m10 0h10m40 0h20m10 0h50m10 0h5m1 0h33m1 0h40m10 0h20m10 0h20m10 0h20m10 0h80m25 0h48m1 0h1m20 0h10m10 0h10m20 0h20m20 0h10m10 0h8m1 0h1m20 0h40m30 0h10m20 0h10M0 42h40m10 0h8m1 0h1m40 0h20m10 0h50m10 0h38m1 0h41m10 0h20m10 0h20m10 0h20m10 0h80m25 0h50m20 0h10m10 0h10m20 0h20m20 0h10m10 0h10m20 0h40m30 0h10m20 0h10M0 43h40m10 0h10m40 0h20m10 0h50m10 0h80m10 0h20m10 0h20m10 0h20m10 0h17m1 0h62m25 0h50m20 0h10m10 0h10m20 0h20m20 0h10m10 0h10m20 0h40m30 0h10m20 0h10M0 44h40m10 0h10m40 0h20m10 0h50m10 0h80m10 0h20m10 0h20m10 0h20m10 0h38m1 0h41m25 0h50m20 0h10m10 0h10m20 0h20m20 0h10m10 0h10m20 0h40m30 0h10m20 0h10M0 45h40m5 0h10m45 0h20m10 0h50m10 0h80m10 0h20m10 0h20m10 0h20m10 0h80m25 0h50m20 0h10m10 0h10m20 0h20m20 0h10m10 0h10m20 0h11m1 0h28m30 0h10m20 0h10M0 46h40m5 0h10m45 0h20m10 0h50m10 0h80m10 0h20m10 0h20m10 0h20m10 0h70m1 0h9m25 0h50m20 0h10m10 0h10m20 0h20m20 0h10m10 0h10m20 0h40m30 0h10m20 0h10M0 47h40m5 0h10m45 0h20m10 0h50m10 0h80m10 0h20m10 0h20m10 0h20m10 0h80m25 0h50m20 0h10m11 0h9m20 0h15m1 0h4m20 0h10m10 0h10m20 0h40m30 0h10m20 0h10M0 48h40m5 0h4m1 0h5m45 0h20m10 0h50m10 0h80m10 0h20m10 0h20m10 0h20m10 0h80m25 0h50m20 0h10m10 0h10m20 0h20m20 0h10m10 0h10m20 0h40m30 0h10m20 0h10M0 49h40m5 0h10m45 0h20m10 0h50m10 0h48m1 0h31m10 0h20m10 0h14m1 0h5m10 0h20m10 0h80m25 0h50m20 0h10m10 0h10m20 0h20m20 0h10m10 0h10m20 0h40m30 0h10m20 0h10M30 50h6m1 0h13m50 0h20m40 0h20m10 0h20m40 0h20m10 0h20m10 0h9m1 0h10m10 0h20m10 0h20m85 0h10m60 0h10m10 0h1m1 0h8m60 0h10m10 0h10m50 0h10m30 0h10m20 0h10M30 51h20m50 0h20m40 0h20m10 0h20m40 0h20m10 0h20m10 0h20m10 0h20m10 0h20m85 0h10m60 0h10m10 0h10m60 0h10m10 0h10m50 0h10m30 0h10m20 0h10M30 52h20m50 0h20m40 0h20m10 0h20m40 0h20m10 0h20m10 0h20m10 0h20m10 0h20m85 0h10m60 0h10m10 0h10m60 0h10m10 0h4m1 0h5m50 0h10m30 0h10m20 0h10M30 53h20m50 0h20m40 0h20m10 0h20m40 0h20m10 0h20m10 0h20m10 0h20m10 0h20m85 0h10m60 0h10m10 0h10m60 0h10m10 0h10m50 0h10m30 0h10m20 0h10M30 54h20m50 0h20m40 0h20m10 0h20m40 0h20m10 0h1m1 0h18m10 0h20m10 0h11m1 0h8m10 0h20m85 0h10m60 0h10m10 0h10m60 0h4m1 0h5m10 0h10m50 0h10m30 0h10m20 0h10M30 55h15m55 0h20m40 0h20m10 0h20m40 0h11m1 0h8m10 0h20m10 0h20m10 0h20m10 0h20m85 0h10m60 0h10m10 0h10m60 0h10m10 0h10m50 0h10m30 0h10m20 0h10M30 56h15m55 0h20m40 0h20m10 0h20m40 0h20m10 0h20m10 0h20m10 0h20m10 0h20m85 0h10m60 0h10m10 0h10m60 0h10m10 0h10m50 0h10m30 0h1m1 0h8m20 0h10M30 57h15m55 0h20m40 0h20m10 0h20m40 0h18m1 0h1m10 0h20m10 0h20m10 0h20m10 0h20m85 0h10m60 0h10m10 0h10m60 0h10m10 0h10m50 0h10m30 0h10m20 0h10M30 58h15m55 0h20m40 0h20m10 0h20m40 0h20m10 0h20m10 0h16m1 0h3m10 0h20m10 0h20m85 0h10m60 0h10m10 0h10m60 0h3m1 0h6m10 0h10m50 0h10m30 0h10m20 0h10M30 59h15m55 0h20m40 0h20m10 0h20m40 0h20m10 0h20m10 0h20m10 0h20m10 0h20m85 0h7m2 0h1m60 0h10m10 0h10m60 0h10m10 0h10m50 0h10m30 0h10m20 0h10M25 60h15m60 0h80m10 0h20m40 0h20m10 0h20m10 0h20m10 0h9m1 0h10m10 0h80m25 0h10m60 0h10m10 0h10m60 0h10m10 0h10m50 0h10m30 0h10m20 0h10M25 61h15m60 0h80m10 0h20m40 0h20m10 0h20m10 0h20m10 0h20m10 0h6m1 0h73m25 0h10m60 0h10m10 0h10m60 0h10m10 0h10m50 0h10m30 0h10m20 0h10M25 62h15m60 0h80m10 0h20m40 0h20m10 0h20m10 0h20m10 0h20m10 0h80m25 0h10m60 0h5m1 0h4m10 0h10m60 0h10m10 0h10m50 0h10m30 0h10m20 0h10M25 63h15m60 0h80m10 0h8m1 0h11m40 0h20m10 0h20m10 0h20m10 0h20m10 0h80m25 0h10m60 0h10m10 0h10m60 0h10m10 0h10m50 0h10m30 0h10m20 0h10M25 64h15m60 0h80m10 0h20m40 0h20m10 0h20m10 0h20m10 0h20m10 0h80m25 0h10m60 0h10m10 0h10m60 0h10m10 0h10m50 0h10m30 0h10m20 0h10M25 65h10m65 0h80m10 0h20m40 0h20m10 0h12m1 0h7m10 0h20m10 0h20m10 0h80m25 0h10m60 0h10m10 0h10m60 0h10m10 0h10m50 0h10m30 0h10m20 0h10M25 66h10m65 0h80m10 0h20m40 0h20m10 0h20m10 0h20m10 0h20m10 0h11m1 0h68m25 0h10m60 0h10m10 0h10m60 0h10m10 0h10m50 0h10m30 0h10m20 0h10M25 67h10m65 0h80m10 0h20m40 0h20m10 0h20m10 0h20m10 0h9m1 0h10m10 0h15m1 0h64m25 0h10m60 0h10m10 0h10m60 0h10m10 0h10m50 0h10m30 0h10m20 0h10M25 68h10m65 0h80m10 0h20m40 0h20m10 0h20m10 0h20m10 0h20m10 0h57m1 0h22m25 0h10m60 0h10m10 0h10m60 0h10m10 0h10m50 0h10m30 0h10m20 0h10M25 69h10m65 0h80m10 0h20m40 0h20m10 0h20m10 0h20m10 0h20m10 0h80m25 0h10m60 0h10m10 0h10m60 0h10m10 0h10m50 0h10m30 0h10m20 0h10M20 70h10m70 0h77m1 0h2m10 0h20m40 0h20m10 0h3m1 0h16m10 0h20m10 0h20m10 0h80m25 0h80m10 0h80m10 0h70m30 0h40M20 71h10m70 0h26m1 0h53m10 0h20m40 0h20m10 0h20m10 0h20m10 0h20m10 0h80m25 0h80m10 0h27m1 0h52m10 0h70m30 0h40M20 72h10m70 0h40m1 0h39m10 0h20m40 0h20m10 0h20m10 0h20m10 0h20m10 0h80m25 0h78m1 0h1m10 0h80m10 0h70m30 0h6m1 0h33M20 73h10m70 0h80m10 0h20m40 0h20m10 0h20m10 0h20m10 0h20m10 0h16m1 0h63m25 0h80m10 0h42m1 0h37m10 0h70m30 0h40M20 74h10m70 0h5m1 0h74m10 0h20m40 0h20m10 0h20m10 0h20m10 0h20m10 0h67m1 0h12m25 0h80m10 0h80m10 0h70m30 0h28m1 0h11M20 75h5m75 0h80m10 0h20m40 0h20m10 0h20m10 0h20m10 0h14m1 0h5m10 0h66m1 0h13m25 0h80m10 0h80m10 0h70m30 0h40M20 76h5m75 0h80m10 0h20m40 0h20m10 0h20m10 0h20m10 0h20m10 0h80m25 0h80m10 0h80m10 0h70m30 0h40M20 77h5m75 0h80m10 0h20m40 0h20m10 0h20m10 0h20m10 0h20m10 0h80m25 0h80m10 0h39m1 0h40m10 0h70m30 0h40M20 78h5m75 0h80m10 0h20m40 0h20m10 0h20m10 0h20m10 0h20m10 0h80m25 0h80m10 0h19m1 0h60m10 0h70m30 0h35m1 0h4M20 79h5m75 0h80m10 0h20m40 0h20m10 0h20m10 0h20m10 0h20m10 0h60m1 0h19m25 0h80m10 0h80m10 0h70m30 0h40M15 80h5m-5 1h5m-5 1h5m-5 1h5m-5 1h5"/><path stroke="#feffff" d="M684 0h1M111 3h1m243 2h1M222 6h1m-99 2h1m303 2h1m-6 2h1m5 0h1m-182 4h1m104 0h1m-236 1h1m77 0h1m349 1h1m90 8h1m-319 3h1m335 0h1m35 3h1m-471 2h1m7 7h1m293 0h1m-296 1h1m467 3h1m-257 1h1m124 1h1m44 0h1m-292 3h1m339 2h1m-309 2h1m287 0h1m-314 4h1m311 0h1m-89 4h1m-353 1h1m93 2h1m88 1h1m45 2h1m164 3h1m-207 2h1m-33 2h1m249 2h1"/><path stroke="#fffffe" d="M755 0h1M335 3h1m-42 2h1m89 0h1m224 0h1M107 6h1m140 0h1m565 1h1m-666 5h1m585 2h1m-477 2h1m162 2h1m235 1h1m-105 2h1m-275 1h1m96 5h1m-174 2h1m-27 2h1m340 1h1m233 0h1m-636 2h1m325 1h1m-189 2h1m-62 4h1m467 0h1m-256 3h1m-171 5h1M36 50h1m244 4h1m474 2h1m-274 3h1m-108 2h1m-28 6h1m35 0h1m-103 3h1m-158 1h1m13 1h1m620 0h1m-155 1h1m-503 1h1m677 0h1m-200 4h1m-155 1h1"/><path stroke="#fffeff" d="M549 1h1m23 0h1m11 0h1m1 1h1M61 3h1m200 0h1m47 0h1m68 0h1M196 9h1m14 0h1m476 0h1m-116 1h1m86 0h1m-447 2h1m77 0h1m-88 3h1m341 0h1m-435 5h1m-4 9h1m33 2h1m465 2h1m-218 1h1m-245 1h1m82 1h1m187 4h1m302 0h1M58 42h1m328 1h1M49 48h1m274 1h1m241 1h1m-306 5h1m6 2h1m213 2h1m-134 1h1M177 70h1m375 2h1m-117 2h1m-2 1h1m353 3h1"/><path stroke="#000" d="M75 5h10m95 0h5m85 0h5m85 0h5m85 0h5m100 0h5m85 0h5m45 0h5m115 0h5M75 6h7m1 0h2m95 0h5m85 0h5m85 0h5m85 0h5m100 0h5m85 0h5m45 0h5m115 0h5M75 7h10m95 0h5m85 0h5m85 0h5m85 0h5m100 0h5m85 0h5m45 0h5m115 0h5M75 8h10m95 0h5m85 0h5m85 0h5m85 0h5m100 0h5m85 0h5m45 0h5m115 0h5M75 9h10m95 0h5m85 0h5m85 0h5m85 0h5m100 0h5m85 0h5m45 0h5m115 0h5M70 10h10m100 0h5m85 0h5m85 0h5m85 0h5m100 0h5m85 0h5m45 0h5m115 0h5M70 11h10m100 0h5m85 0h5m85 0h5m85 0h5m100 0h5m85 0h5m45 0h5m115 0h5M70 12h10m100 0h5m85 0h5m85 0h5m85 0h5m100 0h5m85 0h5m45 0h5m115 0h5M70 13h10m100 0h2m1 0h2m85 0h5m85 0h5m85 0h5m100 0h5m85 0h5m45 0h5m115 0h5M70 14h10m100 0h5m85 0h5m85 0h5m85 0h5m100 0h5m85 0h5m45 0h5m115 0h5M65 15h10m105 0h5m85 0h5m85 0h5m85 0h5m100 0h5m85 0h5m45 0h5m115 0h5M65 16h10m105 0h5m85 0h5m85 0h5m85 0h5m100 0h5m85 0h5m45 0h5m115 0h5M65 17h10m105 0h5m85 0h5m85 0h5m85 0h5m100 0h5m85 0h5m45 0h5m115 0h5M65 18h10m105 0h5m85 0h5m85 0h5m85 0h5m100 0h5m85 0h5m45 0h5m115 0h5M65 19h10m105 0h5m85 0h5m85 0h5m85 0h5m100 0h5m85 0h5m45 0h5m115 0h5M60 20h10m51 0h10m1 0h53m25 0h40m20 0h5m25 0h10m20 0h10m20 0h5m25 0h65m100 0h5m85 0h5m45 0h5m115 0h5M60 21h10m50 0h2m1 0h62m25 0h40m20 0h5m25 0h10m20 0h10m20 0h5m25 0h50m1 0h14m100 0h5m85 0h5m45 0h5m115 0h5M60 22h10m50 0h65m25 0h40m20 0h5m25 0h10m20 0h10m20 0h5m25 0h65m100 0h5m85 0h5m45 0h5m115 0h5M60 23h10m50 0h65m25 0h40m20 0h5m25 0h10m20 0h10m20 0h5m25 0h65m100 0h5m85 0h5m45 0h5m115 0h5M60 24h10m50 0h65m25 0h40m20 0h5m25 0h10m20 0h10m20 0h5m25 0h22m1 0h42m100 0h5m85 0h5m45 0h5m115 0h5m-700 1h5m85 0h5m55 0h5m25 0h5m25 0h5m25 0h5m25 0h5m160 0h5m85 0h5m45 0h5m115 0h5m-700 1h5m85 0h5m55 0h5m25 0h5m25 0h5m25 0h5m25 0h5m160 0h5m85 0h5m45 0h5m115 0h5m-700 1h5m85 0h5m55 0h5m25 0h5m25 0h5m25 0h5m25 0h5m160 0h5m85 0h5m45 0h5m115 0h5m-700 1h5m85 0h5m55 0h5m26 0h4m25 0h5m25 0h5m25 0h5m160 0h5m85 0h5m45 0h5m115 0h5m-700 1h5m85 0h5m55 0h5m25 0h3m1 0h1m25 0h5m25 0h5m25 0h5m160 0h5m85 0h5m45 0h5m115 0h5M70 30h10m40 0h5m145 0h5m25 0h5m25 0h5m25 0h5m190 0h5m85 0h5m45 0h5m115 0h5M70 31h10m40 0h5m145 0h5m25 0h5m25 0h5m25 0h5m190 0h5m85 0h5m45 0h5m115 0h5M70 32h10m40 0h5m145 0h5m25 0h5m25 0h5m25 0h5m190 0h5m85 0h5m45 0h5m115 0h5M70 33h10m40 0h5m145 0h5m25 0h5m25 0h5m25 0h5m190 0h5m85 0h5m45 0h5m115 0h5M70 34h10m40 0h5m145 0h5m25 0h5m25 0h5m25 0h5m190 0h5m85 0h5m45 0h5m115 0h5M65 35h10m45 0h5m55 0h5m85 0h5m25 0h5m25 0h5m25 0h5m85 0h5m100 0h5m85 0h5m45 0h5m115 0h5M65 36h10m45 0h5m55 0h5m85 0h5m25 0h5m25 0h5m25 0h5m85 0h5m100 0h5m85 0h5m45 0h5m115 0h5M65 37h10m45 0h5m55 0h5m85 0h5m25 0h5m25 0h5m25 0h5m85 0h5m100 0h5m85 0h5m45 0h5m115 0h5M65 38h10m45 0h5m55 0h5m85 0h5m25 0h5m25 0h5m25 0h5m85 0h5m100 0h5m85 0h5m45 0h5m115 0h5M65 39h10m45 0h5m55 0h5m85 0h5m25 0h5m25 0h5m25 0h5m85 0h5m100 0h5m85 0h5m45 0h5m115 0h5M60 40h10m50 0h5m55 0h5m85 0h5m25 0h5m25 0h5m25 0h5m85 0h5m100 0h5m85 0h5m90 0h15m40 0h25M60 41h10m50 0h5m55 0h5m85 0h5m25 0h5m25 0h5m25 0h5m85 0h5m100 0h5m85 0h5m90 0h15m40 0h25M60 42h10m50 0h5m55 0h5m85 0h5m25 0h5m25 0h5m25 0h5m85 0h5m100 0h5m85 0h5m90 0h7m1 0h7m40 0h25M60 43h10m50 0h5m56 0h4m85 0h5m25 0h5m25 0h5m25 0h5m85 0h5m100 0h5m85 0h5m90 0h15m40 0h25M60 44h10m50 0h5m55 0h5m85 0h5m25 0h5m25 0h5m25 0h5m85 0h5m100 0h5m85 0h5m90 0h14m41 0h25M55 45h10m55 0h5m55 0h5m85 0h5m25 0h5m25 0h5m25 0h5m85 0h5m100 0h5m85 0h5m75 0h5m65 0h5M55 46h10m55 0h5m55 0h5m85 0h5m25 0h1m1 0h3m25 0h5m25 0h5m85 0h5m100 0h5m85 0h5m75 0h5m65 0h5M55 47h10m55 0h5m55 0h5m85 0h5m25 0h5m25 0h5m25 0h5m85 0h5m100 0h5m85 0h5m75 0h5m65 0h5M55 48h10m55 0h5m55 0h5m85 0h5m25 0h5m25 0h5m25 0h5m85 0h5m100 0h5m85 0h5m75 0h5m65 0h5M55 49h10m55 0h5m55 0h5m85 0h5m25 0h5m25 0h5m25 0h5m85 0h5m100 0h5m85 0h5m75 0h5m65 0h5M5 50h23m1 0h1m20 0h10m60 0h5m10 0h25m20 0h5m25 0h40m20 0h5m25 0h5m25 0h5m25 0h5m25 0h65m100 0h5m85 0h5m75 0h5m65 0h5M5 51h25m20 0h10m60 0h5m10 0h25m20 0h5m25 0h1m1 0h38m20 0h5m25 0h5m25 0h5m25 0h5m25 0h65m100 0h5m85 0h5m75 0h5m65 0h5M5 52h25m20 0h10m60 0h5m10 0h25m20 0h5m25 0h40m20 0h5m25 0h5m25 0h5m25 0h5m25 0h65m100 0h5m85 0h5m75 0h5m65 0h5M5 53h25m20 0h10m60 0h5m10 0h25m20 0h5m25 0h40m20 0h5m25 0h5m25 0h5m25 0h5m25 0h49m1 0h15m100 0h5m85 0h5m75 0h5m65 0h5M5 54h25m20 0h10m60 0h5m10 0h25m20 0h5m25 0h40m20 0h5m25 0h5m25 0h5m25 0h5m25 0h65m100 0h5m85 0h5m75 0h5m65 0h5M45 55h10m65 0h5m55 0h5m25 0h5m56 0h4m25 0h5m25 0h5m25 0h5m25 0h5m160 0h5m85 0h5m75 0h5m65 0h5M45 56h10m65 0h5m55 0h5m25 0h5m55 0h5m25 0h5m25 0h5m25 0h5m25 0h4m161 0h5m85 0h5m75 0h5m65 0h5M45 57h10m65 0h5m55 0h5m25 0h5m55 0h5m25 0h5m25 0h5m25 0h5m25 0h5m160 0h5m85 0h5m75 0h5m65 0h5M45 58h10m65 0h5m55 0h5m25 0h5m55 0h5m25 0h5m25 0h5m25 0h5m25 0h2m1 0h2m160 0h5m85 0h5m75 0h5m65 0h5M45 59h10m65 0h5m55 0h5m25 0h5m55 0h5m25 0h5m25 0h5m25 0h5m25 0h5m160 0h5m85 0h5m75 0h5m65 0h5M40 60h10m130 0h5m25 0h5m55 0h5m25 0h5m25 0h5m25 0h5m190 0h5m85 0h5m75 0h5m65 0h5M40 61h10m130 0h5m25 0h5m55 0h5m25 0h5m25 0h5m25 0h5m190 0h5m85 0h5m75 0h5m65 0h5M40 62h10m130 0h5m25 0h5m55 0h5m25 0h5m25 0h5m25 0h5m190 0h5m85 0h5m75 0h5m65 0h5M40 63h10m130 0h5m25 0h5m55 0h5m25 0h5m25 0h5m25 0h5m190 0h5m85 0h5m75 0h5m65 0h5M40 64h10m130 0h3m1 0h1m25 0h5m55 0h5m25 0h5m25 0h5m25 0h5m190 0h5m85 0h5m75 0h5m65 0h5M35 65h10m135 0h5m25 0h5m55 0h5m25 0h5m25 0h5m25 0h5m85 0h5m100 0h5m85 0h5m75 0h5m65 0h5M35 66h10m135 0h5m25 0h5m55 0h5m25 0h5m25 0h5m25 0h5m85 0h5m100 0h5m85 0h5m75 0h5m65 0h5M35 67h10m135 0h5m25 0h5m55 0h5m25 0h5m25 0h5m25 0h5m85 0h5m100 0h5m85 0h5m75 0h5m65 0h5M35 68h10m135 0h5m25 0h5m55 0h5m25 0h5m25 0h5m25 0h5m85 0h5m100 0h5m85 0h5m75 0h5m65 0h5M35 69h10m135 0h5m25 0h5m55 0h5m25 0h5m25 0h5m25 0h5m85 0h5m100 0h5m85 0h5m75 0h5m65 0h5M30 70h10m140 0h5m25 0h5m55 0h5m25 0h5m25 0h5m25 0h5m85 0h5m100 0h5m85 0h5m75 0h5m65 0h5M30 71h10m140 0h3m1 0h1m25 0h5m55 0h5m25 0h5m25 0h5m25 0h5m85 0h5m100 0h5m85 0h5m75 0h5m65 0h5M30 72h10m140 0h5m25 0h5m55 0h5m25 0h5m25 0h5m25 0h5m85 0h5m100 0h5m85 0h5m75 0h5m65 0h5M30 73h10m140 0h5m25 0h5m55 0h5m25 0h5m25 0h5m25 0h5m85 0h5m100 0h5m85 0h5m75 0h5m65 0h5M30 74h10m140 0h5m25 0h5m55 0h5m25 0h5m25 0h5m25 0h5m85 0h5m100 0h5m85 0h5m75 0h5m65 0h5M25 75h10m145 0h5m25 0h5m55 0h5m25 0h5m25 0h5m25 0h5m85 0h5m100 0h5m85 0h5m75 0h5m65 0h5M25 76h10m145 0h5m25 0h5m55 0h5m25 0h5m25 0h5m25 0h5m85 0h5m100 0h5m85 0h5m75 0h5m65 0h5M25 77h10m145 0h5m25 0h5m55 0h5m25 0h5m25 0h5m25 0h5m85 0h5m100 0h1m1 0h3m85 0h5m75 0h5m65 0h5M25 78h10m145 0h5m25 0h5m55 0h5m25 0h5m25 0h5m25 0h5m85 0h5m100 0h5m85 0h5m75 0h5m65 0h5M25 79h10m145 0h5m25 0h5m55 0h5m25 0h5m25 0h5m25 0h5m85 0h5m100 0h5m85 0h5m75 0h5m65 0h5M20 80h10m75 0h80m10 0h20m40 0h20m10 0h20m10 0h20m10 0h20m10 0h30m1 0h49m25 0h80m10 0h80m10 0h70m30 0h40M20 81h10m75 0h80m10 0h20m40 0h20m10 0h20m10 0h19m11 0h20m10 0h80m25 0h49m1 0h30m10 0h80m10 0h61m1 0h8m30 0h40M20 82h10m75 0h80m10 0h20m40 0h20m10 0h20m10 0h20m10 0h20m10 0h68m1 0h11m25 0h80m10 0h58m1 0h21m10 0h61m1 0h8m30 0h40M20 83h10m75 0h80m10 0h20m40 0h20m10 0h20m10 0h20m10 0h20m10 0h80m25 0h27m1 0h52m10 0h80m10 0h28m1 0h41m30 0h40M20 84h10m75 0h80m10 0h20m40 0h20m10 0h20m10 0h20m10 0h20m10 0h20m1 0h59m25 0h80m10 0h80m10 0h70m30 0h40M20 85h5m-5 1h5m-5 1h5m-5 1h5m-5 1h5"/><path stroke="#000100" d="M82 6h1m48 14h1m280 4h1m-113 4h1M180 43h1m30 8h1m58 4h1m-88 9h1m150 17h1m194 0h1m191 0h1"/><path stroke="#2f7f6f" d="M25 10h35m465 0h20m30 0h60m30 0h20m60 0h24m1 0h35M25 11h35m465 0h20m30 0h60m30 0h20m60 0h60M25 12h35m465 0h20m30 0h60m30 0h20m60 0h60M25 13h35m465 0h20m30 0h60m30 0h15m1 0h4m60 0h60M25 14h35m465 0h20m30 0h60m30 0h20m60 0h60M25 15h30m470 0h20m30 0h60m30 0h3m1 0h16m60 0h60M25 16h30m470 0h20m30 0h60m30 0h20m60 0h60M25 17h30m470 0h20m30 0h43m1 0h13m1 0h2m30 0h20m60 0h60M25 18h30m470 0h20m30 0h60m30 0h20m60 0h60M25 19h30m470 0h20m30 0h60m30 0h20m60 0h60M20 20h30m475 0h20m30 0h60m30 0h20m60 0h60M20 21h30m475 0h20m30 0h28m1 0h31m30 0h20m60 0h60M20 22h30m475 0h20m30 0h60m30 0h20m60 0h21m1 0h38M20 23h30m475 0h20m30 0h60m30 0h20m60 0h60M20 24h30m475 0h20m30 0h10m1 0h49m30 0h20m60 0h46m1 0h13M20 25h2m1 0h3m1 0h18m480 0h20m30 0h60m30 0h20m60 0h60M20 26h19m1 0h5m480 0h20m30 0h60m30 0h20m60 0h32m1 0h7m1 0h16m1 0h2M20 27h25m480 0h20m30 0h60m30 0h20m60 0h60M20 28h25m480 0h20m30 0h60m30 0h20m60 0h60M20 29h25m480 0h20m30 0h60m30 0h9m1 0h10m60 0h60M15 30h5m5 0h5m5 0h5m485 0h20m30 0h20m20 0h20m30 0h17m1 0h2m80 0h20M15 31h5m5 0h5m5 0h5m485 0h20m30 0h20m20 0h13m1 0h6m30 0h20m80 0h20M15 32h5m5 0h5m5 0h5m485 0h20m30 0h20m20 0h20m30 0h20m80 0h20M15 33h5m5 0h5m5 0h5m485 0h20m30 0h20m20 0h20m30 0h20m80 0h20M15 34h5m5 0h5m5 0h5m485 0h20m30 0h20m20 0h20m30 0h20m80 0h20M20 35h5m5 0h5m5 0h5m5 0h5m470 0h5m5 0h5m35 0h5m5 0h5m25 0h5m5 0h5m35 0h5m5 0h5m85 0h5m5 0h5M20 36h5m5 0h5m5 0h5m5 0h5m470 0h5m5 0h5m35 0h5m5 0h5m25 0h5m5 0h5m35 0h5m5 0h5m85 0h5m5 0h5M20 37h5m5 0h5m5 0h5m5 0h2m1 0h2m470 0h5m5 0h5m35 0h5m5 0h5m25 0h5m5 0h5m35 0h5m5 0h5m85 0h5m5 0h5M20 38h5m5 0h5m5 0h5m5 0h5m470 0h5m5 0h5m35 0h5m5 0h5m25 0h5m5 0h5m35 0h5m5 0h5m86 0h4m5 0h5M20 39h5m5 0h5m5 0h5m5 0h5m470 0h5m5 0h5m35 0h5m5 0h5m25 0h5m5 0h5m35 0h5m5 0h5m85 0h5m5 0h5m-255 1h10m5 0h5m30 0h10m5 0h5m20 0h10m5 0h5m30 0h10m5 0h5m80 0h10m5 0h5m-260 1h10m5 0h5m30 0h10m5 0h5m20 0h10m5 0h5m30 0h10m5 0h5m80 0h10m5 0h5m-260 1h10m5 0h5m30 0h10m5 0h5m20 0h10m5 0h5m30 0h10m5 0h5m80 0h10m5 0h5m-260 1h10m5 0h5m30 0h10m5 0h5m20 0h10m5 0h5m30 0h10m5 0h5m80 0h10m5 0h5m-260 1h10m5 0h5m30 0h10m5 0h5m20 0h10m5 0h5m30 0h10m5 0h3m1 0h1m80 0h10m5 0h5m-260 1h5m45 0h5m35 0h5m45 0h5m95 0h5m-245 1h5m45 0h5m35 0h5m45 0h5m95 0h5m-245 1h4m46 0h5m35 0h5m45 0h5m95 0h5m-245 1h5m45 0h5m35 0h5m45 0h5m95 0h5m-245 1h5m45 0h5m35 0h5m45 0h5m95 0h5m-285 1h45m45 0h5m20 0h20m45 0h5m20 0h25m50 0h5m-285 1h45m45 0h5m20 0h20m45 0h5m20 0h25m50 0h5m-285 1h45m45 0h5m20 0h20m45 0h5m20 0h25m50 0h5m-285 1h23m1 0h21m45 0h5m20 0h20m45 0h5m20 0h25m50 0h5m-285 1h45m45 0h5m20 0h20m45 0h5m20 0h25m50 0h5m-285 1h5m85 0h5m85 0h5m95 0h5m-285 1h5m85 0h5m85 0h5m95 0h2m1 0h2m-285 1h5m85 0h5m85 0h5m95 0h5m-285 1h5m85 0h2m1 0h2m85 0h5m95 0h5m-285 1h5m85 0h2m1 0h2m85 0h5m95 0h4m-284 1h5m85 0h5m85 0h5m95 0h5m-285 1h5m85 0h5m85 0h5m95 0h5m-285 1h5m85 0h5m85 0h5m95 0h5m-285 1h5m85 0h5m85 0h5m95 0h5m-285 1h5m85 0h5m85 0h5m95 0h5m-285 1h5m85 0h5m85 0h5m95 0h5m-285 1h5m85 0h5m85 0h5m95 0h5m-285 1h5m85 0h5m85 0h5m95 0h5m-285 1h5m85 0h5m85 0h5m95 0h5m-285 1h5m85 0h5m85 0h5m95 0h5"/><path stroke="#2f7f6e" d="M769 10h1m-102 5h1m-51 2h1m147 5h1m24 2h1M22 25h1m16 1h1m737 0h1m-150 5h1M52 37h1m712 1h1M577 58h1"/><path stroke="#010000" d="M182 13h1m564 29h1m6 2h1M28 50h1m410 3h1m-46 3h1m-3 2h1m163 19h1m-114 5h1m244 1h1"/><path stroke="#2e7f6f" d="M680 13h1m-78 8h1m-19 3h1M26 25h1m775 1h1M529 47h1m-22 6h1m68 6h1m191 0h1"/><path stroke="#2f7e6f" d="M632 17h1m152 9h1m-112 3h1m7 1h1m0 14h1m83 12h1"/><path stroke="#000001" d="M120 20h1m1 1h1m317 0h1m-138 8h1m-3 17h1M183 71h1m221 9h1m222 2h1m92 0h1m-215 1h1m-113 1h1"/><path stroke="#cf0" d="M20 30h5m5 0h5m5 0h5m-25 1h5m5 0h5m5 0h5m-25 1h5m5 0h5m5 0h5m-25 1h5m5 0h5m5 0h5m-25 1h5m5 0h5m5 0h5m-30 1h5m5 0h5m5 0h5m5 0h5m480 0h5m5 0h5m35 0h5m5 0h5m25 0h5m5 0h5m35 0h5m5 0h5m85 0h5m5 0h5M15 36h5m5 0h5m5 0h5m5 0h5m480 0h5m5 0h5m35 0h5m5 0h5m25 0h5m5 0h5m35 0h5m5 0h5m85 0h5m5 0h5M15 37h5m5 0h5m5 0h5m5 0h5m480 0h5m5 0h5m35 0h5m5 0h5m25 0h5m5 0h5m35 0h5m5 0h5m85 0h5m5 0h5M15 38h5m5 0h5m5 0h5m5 0h5m480 0h5m5 0h5m35 0h5m5 0h5m25 0h5m5 0h5m35 0h5m5 0h5m85 0h5m5 0h5M15 39h5m5 0h5m5 0h5m5 0h5m480 0h5m5 0h5m35 0h5m5 0h5m25 0h5m5 0h5m35 0h5m5 0h5m85 0h5m5 0h5M40 40h10m485 0h5m46 0h4m35 0h5m45 0h5m95 0h5M40 41h10m485 0h5m45 0h5m35 0h5m45 0h5m95 0h5M40 42h10m485 0h5m45 0h5m35 0h5m45 0h5m95 0h5M40 43h10m485 0h5m45 0h5m35 0h5m45 0h5m95 0h5M40 44h10m485 0h5m45 0h5m35 0h5m45 0h5m95 0h5M40 45h5m485 0h15m35 0h15m25 0h15m35 0h15m85 0h15M40 46h5m485 0h15m35 0h15m25 0h15m35 0h15m85 0h15M40 47h5m485 0h15m35 0h15m25 0h15m35 0h15m85 0h15M40 48h5m485 0h15m35 0h15m25 0h15m35 0h15m85 0h15M40 49h5m485 0h15m35 0h15m25 0h15m35 0h15m85 0h15m-255 1h15m35 0h20m20 0h15m35 0h20m80 0h15m-255 1h15m35 0h20m20 0h15m35 0h20m80 0h15m-255 1h15m35 0h20m20 0h15m35 0h20m80 0h2m1 0h12m-255 1h15m35 0h20m20 0h15m35 0h20m80 0h15m-255 1h15m35 0h20m20 0h15m35 0h20m80 0h15m-295 1h55m35 0h55m35 0h45m55 0h15m-295 1h55m35 0h20m1 0h34m35 0h45m55 0h15m-295 1h55m35 0h55m35 0h45m55 0h15m-295 1h55m35 0h55m35 0h45m55 0h15m-295 1h1m1 0h53m35 0h55m35 0h45m55 0h15m-294 1h54m35 0h55m35 0h22m1 0h22m55 0h15m-295 1h55m35 0h55m35 0h45m55 0h15m-295 1h55m35 0h55m35 0h45m55 0h15m-295 1h55m35 0h18m1 0h36m35 0h45m55 0h15m-295 1h55m35 0h55m35 0h45m55 0h15m-295 1h55m35 0h55m35 0h1m1 0h43m55 0h15m-295 1h55m35 0h55m35 0h45m55 0h15m-295 1h55m35 0h30m1 0h24m35 0h45m55 0h15m-295 1h55m35 0h55m35 0h45m55 0h15m-295 1h55m35 0h55m35 0h45m55 0h15"/><path stroke="#ccfe00" d="M585 40h1m-95 19h1m-2 1h1m107 3h1m72 2h1"/><path stroke="#ccff01" d="M772 52h1m-173 4h1m91 4h1m-83 7h1"/></svg>