<svg xmlns="http://www.w3.org/2000/svg" shape-rendering="crispEdges" viewBox="0 -0.5 85 90"><path stroke="#fff" d="M20 0h60M20 1h60M20 2h37m1 0h22M20 3h7m1 0h30m1 0h21M20 4h60M20 5h15m1 0h29m1 0h9M20 6h55M20 7h17m1 0h37M20 8h55M20 9h55m-60 1h10m35 0h10m-55 1h10m35 0h4m1 0h5m-55 1h1m1 0h3m1 0h4m35 0h10m-55 1h10m35 0h10m-55 1h10m35 0h10m-55 1h8m1 0h1m30 0h10m-50 1h10m30 0h5m1 0h4m-50 1h10m30 0h10m-50 1h7m1 0h2m30 0h10m-50 1h10m30 0h10m-55 1h10m30 0h10m-50 1h10m30 0h4m1 0h5m-50 1h10m30 0h1m1 0h8m-50 1h3m1 0h6m30 0h10m-50 1h10m30 0h10m-50 1h10m25 0h3m1 0h12m1 0h6m1 0h6m-65 1h10m25 0h9m1 0h20m-65 1h7m1 0h2m25 0h15m1 0h14m-65 1h4m1 0h3m1 0h1m25 0h22m1 0h7m-65 1h10m25 0h19m1 0h10M5 30h7m1 0h2m30 0h2m1 0h3m1 0h7m1 0h8m1 0h1M5 31h10m30 0h1m1 0h23M5 32h9m31 0h22m1 0h2M5 33h10m30 0h25M5 34h9m31 0h23m1 0h1M5 35h10m40 0h6m1 0h3M5 36h9m41 0h10M5 37h10m40 0h10M5 38h10m40 0h10M5 39h10m40 0h1m1 0h8M0 40h19m1 0h10m1 0h9m10 0h10M0 41h9m1 0h14m1 0h15m10 0h10M0 42h40m10 0h10M0 43h40m10 0h10M1 44h39m10 0h10M0 45h27m1 0h12m5 0h3m1 0h6M0 46h1m2 0h4m1 0h20m1 0h11m5 0h10M0 47h40m5 0h7m1 0h2M0 48h40m5 0h6m1 0h3M0 49h40m5 0h10m-25 1h20m-20 1h20m-20 1h14m1 0h5m-20 1h4m1 0h15m-20 1h4m1 0h6m1 0h3m1 0h4m-20 1h5m1 0h9m-15 1h6m2 0h7m-15 1h14m-14 1h15m-15 1h15m-19 1h12m1 0h1m-15 1h9m1 0h5m-15 1h15m-15 1h15m-15 1h8m1 0h6m-15 1h10m-10 1h10m-10 1h10m-10 1h8m1 0h1m-10 1h10m-15 1h10m-10 1h10m-10 1h10m-10 1h7m1 0h2m-10 1h3m1 0h6m-8 1h3m-5 1h5m-5 1h5m-5 1h5m-5 1h5m-10 1h5m-5 1h5m-5 1h3m1 0h1m-5 1h5m-5 1h5"/><path stroke="#fffffe" d="M57 2h1M37 7h1m-18 5h1m2 3h1m37 10h1m-8 1h1m-38 1h1m49 1h1m-21 2h1m11 0h1m8 0h1m-23 1h1m-33 5h1m41 3h1m-38 1h1M9 41h1m14 0h1M0 44h1m0 2h1m5 0h1m20 0h1m12 8h1m-6 2h1m7 1h1m-7 3h1m-5 1h1m-2 7h1m-14 7h1"/><path stroke="#feffff" d="M27 3h1m36 8h1M54 21h1m-42 2h1m54 2h1m-9 2h1m-47 1h1m49 1h1m-53 1h1m38 0h1m15 2h1m-54 2h1m53 0h1m-8 1h1M27 45h1m20 0h1M2 46h1m49 1h1m-2 1h1m-8 4h1m-11 1h1m10 1h1m-11 1h1m1 1h1M21 75h1"/><path stroke="#fffeff" d="M58 3h1M35 5h1m29 0h1m-50 7h1m43 4h1m-39 2h1m28 4h1m-4 3h1m-31 3h1m-5 4h1m15 8h1m3 14h1m-10 6h1m7 4h1m-7 9h1m-5 1h1m-6 8h1"/><path stroke="#000" d="M75 5h10m-9 1h9M75 7h1m1 0h8M75 8h10M75 9h10m-15 1h10m-10 1h10m-10 1h5m1 0h4m-10 1h10m-10 1h10m-15 1h10m-10 1h10m-10 1h10m-10 1h4m1 0h5m-10 1h5m1 0h4m-15 1h10m-10 1h10m-10 1h10m-10 1h10m-10 1h10m0 6h7m1 0h2m-10 1h4m1 0h5m-10 1h10m-10 1h10m-10 1h4m1 0h5m-15 1h10m-10 1h10m-10 1h3m1 0h6m-10 1h10m-10 1h10m-15 1h4m1 0h5m-10 1h7m1 0h2m-10 1h9m-9 1h10m-10 1h10m-15 1h10m-10 1h10m-10 1h10m-10 1h10m-10 1h10M5 50h18m1 0h6m21 0h9M5 51h3m1 0h21m20 0h1m1 0h8M5 52h25m20 0h10M5 53h25m20 0h1m1 0h8M5 54h25m20 0h10m-15 1h10m-10 1h10m-10 1h1m1 0h8m-10 1h10m-10 1h10m-14 1h9m-10 1h3m1 0h6m-10 1h10m-10 1h10m-9 1h9m-15 1h10m-10 1h10m-10 1h10m-10 1h10m-10 1h2m1 0h7m-15 1h10m-10 1h6m1 0h1m1 0h1m-10 1h10m-10 1h10m-10 1h7m1 0h2m-14 1h9m-10 1h10m-10 1h2m1 0h7m-10 1h10m-10 1h10m-15 1h10m-10 1h5m1 0h4m-10 1h10m-10 1h10m-10 1h10m-10 1h5m-5 1h5m-5 1h5m-5 1h5m-5 1h5"/><path stroke="#010000" d="M75 6h1m-1 6h1m-7 6h1m4 13h1m-1 3h1m-7 3h1m-2 4h1m1 1h1m-19 9h1M37 74h1"/><path stroke="#000001" d="M76 7h1m-7 12h1m6 11h1M64 40h1M8 51h1m42 2h1m-9 8h1m-4 3h1m-5 7h1m-10 6h1"/><path stroke="#2f7f6f" d="M25 10h31m1 0h3m-35 1h2m1 0h32m-35 1h35m-35 1h35m-35 1h11m1 0h17m1 0h5m-35 1h9m1 0h20m-30 1h8m1 0h21m-30 1h9m1 0h20m-30 1h30m-30 1h30m-35 1h2m1 0h27m-30 1h8m1 0h21m-30 1h30m-30 1h30m-30 1h5m1 0h14m1 0h9m-30 1h15m1 0h9m-25 1h2m1 0h6m1 0h15m-25 1h25m-25 1h25m-25 1h25m-30 1h5m5 0h5m5 0h5m-25 1h5m5 0h5m5 0h5m-25 1h5m5 0h5m5 0h5m-25 1h5m5 0h5m5 0h5m-25 1h1m1 0h3m5 0h5m5 0h5m-20 1h5m5 0h5m5 0h5m5 0h5m-35 1h5m5 0h5m5 0h5m5 0h5m-35 1h2m1 0h2m5 0h5m5 0h5m5 0h5m-35 1h5m5 0h5m5 0h5m5 0h5m-35 1h2m1 0h2m5 0h5m5 0h5m5 0h5"/><path stroke="#2e7f6f" d="M56 10h1m-23 7h1m-13 3h1m12 5h1m-14 1h1"/><path stroke="#2f7f6e" d="M27 11h1m8 3h1m17 0h1M16 34h1m5 3h1"/><path stroke="#2f7e6f" d="M34 15h1m-2 1h1m-6 5h1m-4 3h1m14 0h1m-12 2h1m-8 13h1"/><path stroke="#cf0" d="M20 30h5m5 0h5m5 0h5m-25 1h5m5 0h5m5 0h5m-25 1h5m5 0h5m5 0h5m-25 1h5m5 0h5m5 0h3m1 0h1m-25 1h5m5 0h5m5 0h5m-30 1h5m5 0h5m5 0h5m5 0h5m-35 1h5m5 0h4m6 0h5m5 0h5m-35 1h5m5 0h3m1 0h1m5 0h5m5 0h5m-35 1h1m1 0h3m5 0h5m5 0h5m5 0h5m-35 1h5m5 0h5m5 0h5m5 0h5m-10 1h10m-10 1h6m1 0h3m-10 1h10m-10 1h10m-10 1h10m-10 1h5m-5 1h4m-4 1h5m-5 1h5m-5 1h5"/><path stroke="#ccfe00" d="M43 33h1"/><path stroke="#ccff01" d="M29 36h1m-2 1h1"/><path stroke="#cdff00" d="M16 38h1m29 3h1m-3 5h1"/><path stroke="#000100" d="M23 50h1m26 0h1m-5 7h1m-7 3h1m-4 9h1m0 2h1m-14 4h1m-1 6h1"/></svg>